{"title":"I Am Number Four TS READNFO XViD v2 - IMAGiNE","uid":6311261,"size":1417246752,"categoryP":"video","categoryS":"movies","magnet":"?xt=urn:btih:0026b0f6c2549ffef84a8446cc542e618233fee9&amp;dn=I+Am+Number+Four+TS+READNFO+XViD+v2+-+IMAGiNE&amp;tr=udp%3A%2F%2Ftracker.openbittorrent.com%3A80&amp;tr=udp%3A%2F%2Fopen.demonii.com%3A1337&amp;tr=udp%3A%2F%2Ftracker.coppersurfer.tk%3A6969&amp;tr=udp%3A%2F%2Fexodus.desync.com%3A6969","seeders":1,"leechers":0,"uploader":"SAFCukO09","files":2,"time":1302545637,"description":"*********** **** **** *** ******** *********** **** *** **********\n\n*+* +*+*+* *+*+*+ *+* *+* *+* *+* *+* *+*+* *+* *+*\n\n+*+ +*+ +*+*+ +*+ +*+ +*+ +*+ +*+ *+*+*+ +*+ +*+\n\n+$+ +$+ +*+ +$+ +$++*++$++* *$* +$+ +$+ +*+ +$+ +$++*++$\n\n+$+ +$+ +$+ +$+ +$+ +$+ +$+$ +$+ +$+ +$+$+$ +$+\n\n$+$ $+$ $+$ $+$ $+$ $+$ $+$ $+$ $+$ $+$+$ $+$\n\n$$$$$$$$$$$ $$$ $$$ $$$ $$$ $$$$$$$$ $$$$$$$$$$$ $$$ $$$$ $$$$$$$$$$\n\n\n\n\n\n\n\n\n\nAnother Fine Release Brought to you from - IMAGiNE\n\n\n\n\n\n********************************************************************************************************************\n\nI Am Number Four TS READNFO XViD v2 - IMAGiNE\n\n********************************************************************************************************************\n\n\n\nRipper ...........: IMAGiNE IMDB Rating.......:7.8/10\n\nVideo Codec.......: XVID Release Date......:11/04/11\n\nAudio Codec.......:MP3 Theatre Date......:18/02/11\n\nAudio Bitrate.....:128 Runtime.......:1h 41mn\n\nSubtitles.........:ENG WHEN NEEDED Language..........:ENGLISH\n\nResolution...... 720 x 384 IMDb URL.......... http://www.imdb.com/title/tt1464540/\n\n\n\n\n\nDETAILS:\n\n\n\nVideo\n\nID : 0\n\nFormat : MPEG-4 Visual\n\nFormat profile : Advanced Simple@L5\n\nFormat settings, BVOP : 2\n\nFormat settings, QPel : No\n\nFormat settings, GMC : No warppoints\n\nFormat settings, Matrix : Default (MPEG)\n\nMuxing mode : Packed bitstream\n\nCodec ID : XVID\n\nCodec ID/Hint : XviD\n\nDuration : 1h 41mn\n\nBit rate : 1 716 Kbps\n\nWidth : 720 pixels\n\nHeight : 384 pixels\n\nDisplay aspect ratio : 1.875\n\nFrame rate : 25.000 fps\n\nColor space : YUV\n\nChroma subsampling : 4:2:0\n\nBit depth : 8 bits\n\nScan type : Progressive\n\nCompression mode : Lossy\n\nBits/(Pixel*Frame) : 0.248\n\nStream size : 1.22 GiB (93%)\n\nWriting library : XviD 61\n\n\n\nAudio\n\nID : 1\n\nFormat : MPEG Audio\n\nFormat version : Version 1\n\nFormat profile : Layer 3\n\nCodec ID : 55\n\nCodec ID/Hint : MP3\n\nDuration : 1h 41mn\n\nBit rate mode : Constant\n\nBit rate : 128 Kbps\n\nChannel(s) : 2 channels\n\nSampling rate : 44.1 KHz\n\nCompression mode : Lossy\n\nStream size : 93.3 MiB (7%)\n\nAlignment : Split accross interleaves\n\nInterleave, duration : 40 ms (1.00 video frame)\n\nInterleave, preload duration : 500 ms\n\n\n\n\n\n\n\nSOURCES:\n\n\n\nVIDEO:I Am Number Four 720p files .... Thanks Addicted\n\nAUDIO:I Am Number Four line ... Thanks m8ty , I Am Number Four ppvrip ..... Thanks IFLiX\n\n\n\n\n\nNOTES:\n\n\n\nIMAGiNE bringing you another release..........I Am Number Four\n\n\n\nRight here we go with another version of this,but this time with a new cam video :)\n\nThe source was interlaced,filmed at a angle,was dull looking....but miles better than most cams.\n\nSo what we did was drop it in vdub so we could rotate the video level and pull the sides in with a perspective\n\nfilter so we lose hardly any video....then we had to resize it and then add our normal stuff of brightness,contrast,chroma\n\nsharpness etc...\n\nOh also for this the subs were in french so we made our own subpack and hardcoded english subs in yellow when needed.\n\nNow the audio ....man what a ball ache.After a few of us trying to sync this with many different methods and getting nowhere,we\n\nthen noticed the video was different to the line audio....so we tried the ppvrip audio,and guess what ??that was bloody different\n\naswell lol.\n\nSo in the end to make it complete we had to use both audio files ...main body is line audio with 4-5 gaps lasting from 22 secs to 1min\n\nof ppv audio.\n\nNow because they sounded different and had different levels,we tried to get them close as possible by normalizing and hard levelling the\n\naudio then we used a hiss reduction and changed the EQ....you can see hear the change overs,but at least they sound better now.\n\n\n\nEnjoy folks\n\n\n\n","torrent":{"xt":"urn:btih:0026b0f6c2549ffef84a8446cc542e618233fee9","amp;dn":"I+Am+Number+Four+TS+READNFO+XViD+v2+-+IMAGiNE","amp;tr":["udp%3A%2F%2Ftracker.openbittorrent.com%3A80","udp%3A%2F%2Fopen.demonii.com%3A1337","udp%3A%2F%2Ftracker.coppersurfer.tk%3A6969","udp%3A%2F%2Fexodus.desync.com%3A6969"],"infoHash":"0026b0f6c2549ffef84a8446cc542e618233fee9","infoHashBuffer":{"type":"Buffer","data":[0,38,176,246,194,84,159,254,248,74,132,70,204,84,46,97,130,51,254,233]},"announce":[],"urlList":[]}}